<svg xmlns="http://www.w3.org/2000/svg" viewBox="0 0 1600 1000" fill="none">
  <defs>
    <linearGradient id="bg2" x1="0" y1="0" x2="1" y2="1">
      <stop offset="0" stop-color="#F1EEF8"/>
      <stop offset="0.5" stop-color="#EBE8F3"/>
      <stop offset="1" stop-color="#EDE4EE"/>
    </linearGradient>
  </defs>
  <rect width="1600" height="1000" fill="url(#bg2)"/>
  <!-- Sidebar -->
  <rect x="0" y="0" width="240" height="1000" fill="white" fill-opacity="0.4"/>
  <text x="40" y="60" font-family="ui-sans-serif" font-size="22" font-weight="600" fill="#1A365D" letter-spacing="3">vexa</text>
  <rect x="20" y="280" width="200" height="36" rx="8" fill="white" fill-opacity="0.6"/>
  <rect x="40" y="200" width="160" height="14" rx="3" fill="#cbd5e1" opacity="0.5"/>
  <rect x="40" y="240" width="120" height="14" rx="3" fill="#cbd5e1" opacity="0.5"/>
  <!-- Main -->
  <text x="300" y="100" font-family="ui-sans-serif" font-size="36" font-weight="700" fill="#1A365D">Timesheet TS-2026-0042</text>
  <text x="300" y="130" font-family="ui-sans-serif" font-size="14" fill="#64748b">Cliente ABC · Memo MX · 2026-04-01 → 2026-04-30</text>
  <!-- Table -->
  <g transform="translate(300, 180)">
    <rect width="1240" height="540" rx="14" fill="white" fill-opacity="0.75"/>
    <!-- Header -->
    <g transform="translate(24, 20)">
      <rect width="1192" height="40" rx="6" fill="#1A365D" fill-opacity="0.04"/>
      <g font-family="ui-sans-serif" font-size="11" fill="#64748b" letter-spacing="1">
        <text x="12" y="25">FECHA</text>
        <text x="140" y="25">ABOGADO</text>
        <text x="350" y="25">DESCRIPCIÓN</text>
        <text x="820" y="25">HORAS</text>
        <text x="930" y="25">TARIFA</text>
        <text x="1080" y="25">IMPORTE</text>
      </g>
    </g>
    <!-- Rows -->
    <g font-family="ui-sans-serif" font-size="12" fill="#1A365D">
      <g transform="translate(24, 70)">
        <text x="12" y="20">2026-04-03</text>
        <text x="140" y="20">Juan M. Ocampo</text>
        <text x="350" y="20">Revisión contrato + minuta cliente</text>
        <text x="820" y="20">3h 30m</text>
        <text x="930" y="20">USD 220</text>
        <text x="1080" y="20" font-weight="600">770.00</text>
      </g>
      <line x1="36" y1="100" x2="1216" y2="100" stroke="#e2e8f0"/>
      <g transform="translate(24, 110)">
        <text x="12" y="20">2026-04-07</text>
        <text x="140" y="20">María Pérez</text>
        <text x="350" y="20">Investigación jurisprudencia</text>
        <text x="820" y="20">2h 00m</text>
        <text x="930" y="20">USD 180</text>
        <text x="1080" y="20" font-weight="600">360.00</text>
      </g>
      <line x1="36" y1="140" x2="1216" y2="140" stroke="#e2e8f0"/>
      <g transform="translate(24, 150)">
        <text x="12" y="20">2026-04-12</text>
        <text x="140" y="20">Juan M. Ocampo</text>
        <text x="350" y="20">Negociación cláusula 4.2</text>
        <text x="820" y="20">4h 15m</text>
        <text x="930" y="20">USD 220</text>
        <text x="1080" y="20" font-weight="600">935.00</text>
      </g>
      <line x1="36" y1="180" x2="1216" y2="180" stroke="#e2e8f0"/>
      <g transform="translate(24, 190)">
        <text x="12" y="20">2026-04-18</text>
        <text x="140" y="20">Lautaro Rojas</text>
        <text x="350" y="20">Drafting addendum + revisión</text>
        <text x="820" y="20">5h 00m</text>
        <text x="930" y="20">USD 160</text>
        <text x="1080" y="20" font-weight="600">800.00</text>
      </g>
    </g>
    <!-- Totals -->
    <g transform="translate(820, 380)">
      <line x1="0" y1="0" x2="400" y2="0" stroke="#1A365D" stroke-width="2"/>
      <text x="0" y="32" font-family="ui-sans-serif" font-size="12" fill="#64748b">Total horas</text>
      <text x="380" y="32" font-family="ui-sans-serif" font-size="12" fill="#1A365D" text-anchor="end">14h 45m</text>
      <text x="0" y="60" font-family="ui-sans-serif" font-size="14" font-weight="700" fill="#1A365D">GRAN TOTAL</text>
      <text x="380" y="60" font-family="ui-sans-serif" font-size="18" font-weight="700" fill="#1A365D" text-anchor="end">USD 2,865.00</text>
    </g>
    <!-- Status pill -->
    <g transform="translate(1080, 30)">
      <rect width="100" height="22" rx="11" fill="#3182CE" fill-opacity="0.15"/>
      <text x="50" y="15" font-family="ui-sans-serif" font-size="11" font-weight="600" fill="#1A365D" text-anchor="middle">EMITIDO</text>
    </g>
    <text x="24" y="510" font-family="ui-sans-serif" font-size="11" fill="#94a3b8" letter-spacing="2">PLACEHOLDER — replace at public/screenshots/02-timesheet.png</text>
  </g>
</svg>
