<svg xmlns="http://www.w3.org/2000/svg" viewBox="0 0 1600 1000" fill="none">
  <defs>
    <linearGradient id="bg3" x1="0" y1="0" x2="1" y2="1">
      <stop offset="0" stop-color="#F1EEF8"/>
      <stop offset="0.5" stop-color="#EBE8F3"/>
      <stop offset="1" stop-color="#EDE4EE"/>
    </linearGradient>
    <linearGradient id="bar" x1="0" y1="1" x2="0" y2="0">
      <stop offset="0" stop-color="#1A365D"/>
      <stop offset="1" stop-color="#3182CE"/>
    </linearGradient>
  </defs>
  <rect width="1600" height="1000" fill="url(#bg3)"/>
  <!-- Sidebar -->
  <rect x="0" y="0" width="240" height="1000" fill="white" fill-opacity="0.4"/>
  <text x="40" y="60" font-family="ui-sans-serif" font-size="22" font-weight="600" fill="#1A365D" letter-spacing="3">vexa</text>
  <rect x="20" y="360" width="200" height="36" rx="8" fill="white" fill-opacity="0.6"/>
  <rect x="40" y="200" width="160" height="14" rx="3" fill="#cbd5e1" opacity="0.5"/>
  <rect x="40" y="240" width="120" height="14" rx="3" fill="#cbd5e1" opacity="0.5"/>
  <rect x="40" y="280" width="140" height="14" rx="3" fill="#cbd5e1" opacity="0.5"/>
  <!-- Main -->
  <text x="300" y="100" font-family="ui-sans-serif" font-size="36" font-weight="700" fill="#1A365D">Estadísticas</text>
  <!-- Stat cards -->
  <g transform="translate(300, 140)">
    <g transform="translate(0, 0)">
      <rect width="290" height="100" rx="12" fill="white" fill-opacity="0.7"/>
      <text x="20" y="40" font-family="ui-sans-serif" font-size="11" fill="#64748b" letter-spacing="2">HORAS LOGUEADAS</text>
      <text x="20" y="76" font-family="ui-sans-serif" font-size="28" font-weight="700" fill="#1A365D">487h</text>
    </g>
    <g transform="translate(310, 0)">
      <rect width="290" height="100" rx="12" fill="white" fill-opacity="0.7"/>
      <text x="20" y="40" font-family="ui-sans-serif" font-size="11" fill="#64748b" letter-spacing="2">FACTURADAS</text>
      <text x="20" y="76" font-family="ui-sans-serif" font-size="28" font-weight="700" fill="#1A365D">412h</text>
    </g>
    <g transform="translate(620, 0)">
      <rect width="290" height="100" rx="12" fill="white" fill-opacity="0.7"/>
      <text x="20" y="40" font-family="ui-sans-serif" font-size="11" fill="#64748b" letter-spacing="2">INGRESOS</text>
      <text x="20" y="76" font-family="ui-sans-serif" font-size="28" font-weight="700" fill="#1A365D">$ 87,400</text>
    </g>
    <g transform="translate(930, 0)">
      <rect width="290" height="100" rx="12" fill="white" fill-opacity="0.7"/>
      <text x="20" y="40" font-family="ui-sans-serif" font-size="11" fill="#64748b" letter-spacing="2">COBRADO</text>
      <text x="20" y="76" font-family="ui-sans-serif" font-size="28" font-weight="700" fill="#1A365D">$ 64,200</text>
    </g>
  </g>
  <!-- Lawyer table -->
  <g transform="translate(300, 270)">
    <rect width="1240" height="440" rx="14" fill="white" fill-opacity="0.7"/>
    <text x="24" y="40" font-family="ui-sans-serif" font-size="16" font-weight="600" fill="#1A365D">Ingresos por abogado</text>
    <!-- Bars -->
    <g transform="translate(40, 80)">
      <g transform="translate(0, 0)">
        <text x="0" y="20" font-family="ui-sans-serif" font-size="13" fill="#1A365D">Juan M. Ocampo</text>
        <rect x="200" y="6" width="640" height="18" rx="3" fill="url(#bar)"/>
        <text x="860" y="20" font-family="ui-sans-serif" font-size="13" font-weight="600" fill="#1A365D">$ 32,400</text>
      </g>
      <g transform="translate(0, 50)">
        <text x="0" y="20" font-family="ui-sans-serif" font-size="13" fill="#1A365D">María Pérez</text>
        <rect x="200" y="6" width="460" height="18" rx="3" fill="url(#bar)"/>
        <text x="680" y="20" font-family="ui-sans-serif" font-size="13" font-weight="600" fill="#1A365D">$ 24,100</text>
      </g>
      <g transform="translate(0, 100)">
        <text x="0" y="20" font-family="ui-sans-serif" font-size="13" fill="#1A365D">Lautaro Rojas</text>
        <rect x="200" y="6" width="380" height="18" rx="3" fill="url(#bar)"/>
        <text x="600" y="20" font-family="ui-sans-serif" font-size="13" font-weight="600" fill="#1A365D">$ 18,600</text>
      </g>
      <g transform="translate(0, 150)">
        <text x="0" y="20" font-family="ui-sans-serif" font-size="13" fill="#1A365D">Sofía Méndez</text>
        <rect x="200" y="6" width="260" height="18" rx="3" fill="url(#bar)"/>
        <text x="480" y="20" font-family="ui-sans-serif" font-size="13" font-weight="600" fill="#1A365D">$ 12,300</text>
      </g>
    </g>
    <text x="24" y="410" font-family="ui-sans-serif" font-size="11" fill="#94a3b8" letter-spacing="2">PLACEHOLDER — replace at public/screenshots/03-stats.png</text>
  </g>
</svg>
